<?xml version="1.0" encoding="UTF-8"?>
<svg version="1.1" xmlns="http://www.w3.org/2000/svg" width="35" height="47">
<path d="M0 0 C4.70057806 2.64846003 8.07099982 5.88881578 9.65625 11.1171875 C10.95750153 19.18494696 9.18231539 25.40872003 4.65625 32.1171875 C2.12660268 35.25937419 -0.53056578 38.22721662 -3.34375 41.1171875 C-0.04375 41.7771875 3.25625 42.4371875 6.65625 43.1171875 C6.65625 43.7771875 6.65625 44.4371875 6.65625 45.1171875 C4.06901011 46.41080744 2.17511997 46.24667699 -0.71875 46.25 C-1.78609375 46.25128906 -2.8534375 46.25257812 -3.953125 46.25390625 C-5.07203125 46.25003906 -6.1909375 46.24617188 -7.34375 46.2421875 C-8.46265625 46.24605469 -9.5815625 46.24992187 -10.734375 46.25390625 C-12.33539062 46.25197266 -12.33539062 46.25197266 -13.96875 46.25 C-14.95101563 46.24887207 -15.93328125 46.24774414 -16.9453125 46.24658203 C-19.34375 46.1171875 -19.34375 46.1171875 -21.34375 45.1171875 C-21.34375 44.4571875 -21.34375 43.7971875 -21.34375 43.1171875 C-18.37375 42.4571875 -15.40375 41.7971875 -12.34375 41.1171875 C-13.03082031 40.33214844 -13.71789063 39.54710937 -14.42578125 38.73828125 C-15.33638871 37.67747049 -16.2465196 36.61625051 -17.15625 35.5546875 C-17.60806641 35.04099609 -18.05988281 34.52730469 -18.52539062 33.99804688 C-23.74237204 27.8671417 -26.00870955 21.90101589 -25.75390625 13.8359375 C-24.97858878 8.6966903 -22.62555215 5.20933337 -18.83984375 1.73828125 C-13.33734041 -2.06706443 -6.16860838 -2.32350916 0 0 Z M-17.34375 7.1171875 C-20.01270507 10.90318128 -21.30544807 14.0255825 -21.46875 18.6796875 C-20.03575418 23.05828585 -17.7960075 26.07713985 -14.34375 29.1171875 C-9.06151236 30.87793338 -4.96689139 30.91344554 -0.03125 28.4921875 C3.06108097 25.7594299 4.39349492 24.05401218 5.65625 20.1171875 C5.85145617 15.51357536 5.27502919 12.12003653 2.84375 8.1796875 C-0.48961054 5.0368047 -3.19548256 3.82853031 -7.78125 3.8046875 C-11.8034938 3.9299705 -14.28018639 4.31621506 -17.34375 7.1171875 Z " fill="#9A59E4" transform="translate(25.34375,0.8828125)"/>
<path d="M0 0 C4.68910355 2.64693322 8.083275 5.89022723 9.65234375 11.1171875 C10.72225496 18.57313125 9.51138596 23.72564884 5.65234375 30.1171875 C4.66234375 29.7871875 3.67234375 29.4571875 2.65234375 29.1171875 C2.40074087 24.58833574 2.40074087 24.58833574 3.6640625 22.22265625 C5.38951611 18.54668986 4.73009248 14.9438776 3.65234375 11.1171875 C1.4541056 8.41166362 -0.24322292 6.66940417 -3.34765625 5.1171875 C-5.45720687 4.91980027 -5.45720687 4.91980027 -7.78515625 4.9296875 C-8.56761719 4.91550781 -9.35007812 4.90132813 -10.15625 4.88671875 C-12.63971612 4.97632686 -12.63971612 4.97632686 -15.34765625 7.1171875 C-16.33765625 7.1171875 -17.32765625 7.1171875 -18.34765625 7.1171875 C-18.67765625 5.7971875 -19.00765625 4.4771875 -19.34765625 3.1171875 C-13.66594029 -1.79672901 -7.10953563 -2.6734693 0 0 Z " fill="#F79D1E" transform="translate(25.34765625,0.8828125)"/>
<path d="M0 0 C2 1 2 1 2.8125 3.1875 C3 6 3 6 1.5 8.875 C-0.41936727 12.87368182 -0.21087282 14.76194512 1 19 C1.825 19.99 2.65 20.98 3.5 22 C6.37464892 25.44957871 6.7352875 27.58812508 7 32 C3 32 3 32 1.3671875 30.42578125 C0.87476563 29.72839844 0.38234375 29.03101562 -0.125 28.3125 C-0.62257813 27.62800781 -1.12015625 26.94351562 -1.6328125 26.23828125 C-5.23439903 20.34196958 -5.97641368 14.80645653 -5 8 C-3.66699981 5.03674523 -2.02998588 2.5302324 0 0 Z " fill="#9451F7" transform="translate(5,4)"/>
<path d="M0 0 C1.06734375 -0.00128906 2.1346875 -0.00257812 3.234375 -0.00390625 C4.35328125 -0.00003906 5.4721875 0.00382812 6.625 0.0078125 C7.74390625 0.00394531 8.8628125 0.00007813 10.015625 -0.00390625 C11.61664062 -0.00197266 11.61664062 -0.00197266 13.25 0 C14.72339844 0.00169189 14.72339844 0.00169189 16.2265625 0.00341797 C18.625 0.1328125 18.625 0.1328125 20.625 1.1328125 C20.625 1.7928125 20.625 2.4528125 20.625 3.1328125 C18.03776011 4.42643244 16.14386997 4.26230199 13.25 4.265625 C12.18265625 4.26691406 11.1153125 4.26820312 10.015625 4.26953125 C8.89671875 4.26566406 7.7778125 4.26179688 6.625 4.2578125 C5.50609375 4.26167969 4.3871875 4.26554687 3.234375 4.26953125 C1.63335938 4.26759766 1.63335938 4.26759766 0 4.265625 C-0.98226563 4.26449707 -1.96453125 4.26336914 -2.9765625 4.26220703 C-5.375 4.1328125 -5.375 4.1328125 -7.375 3.1328125 C-7.375 2.4728125 -7.375 1.8128125 -7.375 1.1328125 C-4.78776011 -0.16080744 -2.89386997 0.00332301 0 0 Z " fill="#667187" transform="translate(11.375,42.8671875)"/>
<path d="M0 0 C-0.33 1.65 -0.66 3.3 -1 5 C-1.60328125 5.13277344 -2.2065625 5.26554688 -2.828125 5.40234375 C-3.62734375 5.57894531 -4.4265625 5.75554688 -5.25 5.9375 C-6.43335938 6.19853516 -6.43335938 6.19853516 -7.640625 6.46484375 C-9.76878703 6.947556 -11.88532842 7.46163178 -14 8 C-14.33 6.68 -14.66 5.36 -15 4 C-9.98010898 -0.11888494 -6.40141012 -0.51211281 0 0 Z " fill="#E68F3E" transform="translate(21,0)"/>
<path d="M0 0 C2 1 2 1 2.8125 3.1875 C3.05871828 6.88077422 1.77058678 8.7993239 0 12 C-0.68636625 14.23525035 -0.68636625 14.23525035 -1 16 C-2.32 15.67 -3.64 15.34 -5 15 C-5.67081836 8.56014376 -3.75430238 5.16216577 0 0 Z " fill="#9C55E6" transform="translate(5,4)"/>
<path d="M0 0 C0.99 1.32 1.98 2.64 3 4 C1.71480435 6.86697492 0.42870746 8.97607712 -2 11 C-2.66 11 -3.32 11 -4 11 C-7 6.61538462 -7 6.61538462 -7 4 C-4.69 2.68 -2.38 1.36 0 0 Z " fill="#D48269" transform="translate(27,27)"/>
<path d="M0 0 C0.99 0 1.98 0 3 0 C5.99481865 4.58031088 5.99481865 4.58031088 7 7 C6.25 9.4375 6.25 9.4375 5 11 C3.68 11 2.36 11 1 11 C0.4254048 7.26513121 0 3.78706732 0 0 Z " fill="#AB64BC" transform="translate(17,31)"/>
<path d="M0 0 C0.99 0 1.98 0 3 0 C3.5745952 3.73486879 4 7.21293268 4 11 C4.99 11.33 5.98 11.66 7 12 C6 13 6 13 3.5625 13.25 C2.716875 13.1675 1.87125 13.085 1 13 C0.34 12.01 -0.32 11.02 -1 10 C-0.01 10 0.98 10 2 10 C1.34 6.7 0.68 3.4 0 0 Z " fill="#A460CE" transform="translate(14,31)"/>
<path d="M0 0 C0.33 1.65 0.66 3.3 1 5 C-2 7 -2 7 -5 7 C-5.33 5.68 -5.66 4.36 -6 3 C-2.25 0 -2.25 0 0 0 Z " fill="#C57C7D" transform="translate(12,1)"/>
<path d="M0 0 C0.33 0.66 0.66 1.32 1 2 C1.66 2 2.32 2 3 2 C3.33 3.65 3.66 5.3 4 7 C3.01 7.33 2.02 7.66 1 8 C-2 3.25 -2 3.25 -2 1 C-1.34 0.67 -0.68 0.34 0 0 Z " fill="#BD788E" transform="translate(22,30)"/>
<path d="M0 0 C2 1 2 1 2.8125 3.375 C3 6 3 6 1.5625 7.8125 C1.046875 8.204375 0.53125 8.59625 0 9 C-1.36623674 6.26752652 -1.128426 4.01801098 -1 1 C-0.67 0.67 -0.34 0.34 0 0 Z " fill="#B06AB1" transform="translate(5,4)"/>
<path d="M0 0 C0.66 0 1.32 0 2 0 C2.33 1.98 2.66 3.96 3 6 C1.68 6 0.36 6 -1 6 C-1.042721 4.33388095 -1.04063832 2.66617115 -1 1 C-0.67 0.67 -0.34 0.34 0 0 Z " fill="#E98E42" transform="translate(29,24)"/>
<path d="M0 0 C2.64 0.33 5.28 0.66 8 1 C7.67 1.66 7.34 2.32 7 3 C4.625 3.1875 4.625 3.1875 2 3 C1.34 2.01 0.68 1.02 0 0 Z " fill="#8D64C3" transform="translate(13,41)"/>
<path d="M0 0 C4.42857143 5.14285714 4.42857143 5.14285714 5 9 C4.01 8.67 3.02 8.34 2 8 C0.5522078 5.10441559 0 3.25811062 0 0 Z " fill="#B36EA6" transform="translate(19,31)"/>
<path d="M0 0 C1.85776765 3.13498292 2.20140476 5.37471432 2 9 C0.68 7.68 -0.64 6.36 -2 5 C-1.34 3.35 -0.68 1.7 0 0 Z " fill="#A65ED0" transform="translate(3,7)"/>
</svg>
